<svg id="emoji" xmlns="http://www.w3.org/2000/svg" viewBox="0 0 72 72">
  <title>E281</title>
  <g id="grid">
    <path d="M68,4V68H4V4H68m4-4H0V72H72V0Z" fill="#b3b3b3"/>
    <path d="M12.923,10.9583H59.0769A1.9231,1.9231,0,0,1,61,12.8814V59.0352a1.9231,1.9231,0,0,1-1.9231,1.9231H12.9231A1.9231,1.9231,0,0,1,11,59.0352V12.8813A1.923,1.923,0,0,1,12.923,10.9583Z" fill="none" stroke="#00a5ff" stroke-miterlimit="10" stroke-width="0.1"/>
    <rect x="16" y="4" width="40" height="64" rx="2.2537" fill="none" stroke="#00a5ff" stroke-miterlimit="10" stroke-width="0.1"/>
    <rect x="16" y="4" width="40" height="64" rx="2.2537" transform="translate(72) rotate(90)" fill="none" stroke="#00a5ff" stroke-miterlimit="10" stroke-width="0.1"/>
    <circle cx="36" cy="36" r="29" fill="none" stroke="#00a5ff" stroke-miterlimit="10" stroke-width="0.1"/>
  </g>
  <g id="hair">
    <g id="hair-2" data-name="hair">
      <path d="M26,38.042c-3,0-4-7-4-14,0-6,5-12,14-12s14,6,14,12c0,7-1,14-4,14" fill="#f1b31c"/>
    </g>
  </g>
  <g id="color">
    <g id="skin">
      <path d="M24.8471,28.6632c-.1,8,4.1,14,11,14,7.1,0,11.1-6,11.1-14,0-5-3-10-3-10-8,0-10,3-16,1A17.3021,17.3021,0,0,0,24.8471,28.6632Z" fill="#fcea2b"/>
    </g>
    <g id="color-2" data-name="color">
      <path d="M16.9584,61.1493V57.1405c0-5.0109,5.011-9.02,10.0219-9.02q9.02,7.5165,18.0394,0c5.0109,0,10.0219,4.0088,10.0219,9.02v4.0088" fill="#92d3f5"/>
    </g>
    <path d="M24.51,29.1228v1.042c0,8.3286,4.8508,14.8539,11.044,14.8539s11.0442-6.5253,11.0442-14.8539c0-5.0665-1.8716-8.1824-5.5611-12.1229a67.2665,67.2665,0,0,1-9.4594,6.2845C28.7922,25.975,24.9947,28.2126,24.51,29.1228Z" fill="#fcea2b"/>
    <polygon points="26.894 34.702 35.876 33.329 45.987 34.638 46.37 36.149 42.532 42.382 28.715 42.205 25.63 35.021 26.894 34.702" fill="#fff"/>
  </g>
  <g id="line">
    <path d="M22.0886,28.077a37.87,37.87,0,0,1-.1192-4.0087C21.9694,18.0552,26.98,12.042,36,12.042s14.0306,6.0132,14.0306,12.0263a37.3264,37.3264,0,0,1-.1191,4.0087" fill="none" stroke="#000" stroke-linecap="round" stroke-linejoin="round" stroke-width="2"/>
    <path d="M41.9129,30.0814a2.0044,2.0044,0,1,1-2.0044-2.0044,2.01,2.01,0,0,1,2.0044,2.0044"/>
    <path d="M33.8954,30.0814A2.0044,2.0044,0,1,1,31.891,28.077a2.01,2.01,0,0,1,2.0044,2.0044"/>
    <path d="M32.0373,44.4046a9.1767,9.1767,0,0,0,3.8625.71,10.6272,10.6272,0,0,0,3.815-.4551" fill="none" stroke="#000" stroke-linecap="round" stroke-linejoin="round" stroke-width="2"/>
    <path d="M41.9129,30.0814a2.0044,2.0044,0,1,1-2.0044-2.0044,2.01,2.01,0,0,1,2.0044,2.0044"/>
    <path d="M33.8954,30.0814A2.0044,2.0044,0,1,1,31.891,28.077a2.01,2.01,0,0,1,2.0044,2.0044"/>
    <path d="M16.9584,60.1471V57.1405c0-5.0109,5.011-9.02,10.0219-9.02q9.02,7.5165,18.0394,0c5.0109,0,10.0219,4.0088,10.0219,9.02v3.0066" fill="none" stroke="#000" stroke-linecap="round" stroke-linejoin="round" stroke-width="2"/>
    <path d="M31.4925,42.1017a4.7077,4.7077,0,0,1-3.6037-1.5691A11.5291,11.5291,0,0,1,25.39,35.5939l-.1431-.3817,9.1491-1.95a6.9229,6.9229,0,0,1,2.9569.0154l8.6345,1.935h.5584a10.8958,10.8958,0,0,1-1.89,4.9208,4.8205,4.8205,0,0,1-3.83,1.9062Z" fill="none" stroke="#000" stroke-linecap="round" stroke-linejoin="round" stroke-width="2"/>
    <line x1="46.1692" y1="35.3559" x2="49.4774" y2="32.7229" fill="none" stroke="#000" stroke-linecap="round" stroke-linejoin="round" stroke-width="2"/>
    <line x1="25.6297" y1="35.3559" x2="22.3298" y2="32.308" fill="none" stroke="#000" stroke-linecap="round" stroke-linejoin="round" stroke-width="2"/>
    <path d="M47.05,29.6632c0-5-3-11-3-11-8,0-10,3-16,1,0,0-3,5-3.1,10" fill="none" stroke="#000" stroke-linecap="round" stroke-linejoin="round" stroke-width="2"/>
  </g>
</svg>
